<svg xmlns="http://www.w3.org/2000/svg" width="1600" height="420" viewBox="0 0 1600 420" role="img" aria-label="AFSECMO logo">
  <defs>
    <linearGradient id="bg" x1="0" y1="0" x2="1" y2="1"><stop offset="0" stop-color="#071827"/><stop offset="0.55" stop-color="#0B2237"/><stop offset="1" stop-color="#0E2D46"/></linearGradient>
    <linearGradient id="platinum" x1="0" y1="0" x2="1" y2="1"><stop offset="0" stop-color="#FFFFFF"/><stop offset="0.48" stop-color="#E8EEF3"/><stop offset="1" stop-color="#C5D2DD"/></linearGradient>
    <linearGradient id="steel" x1="0" y1="0" x2="1" y2="1"><stop offset="0" stop-color="#AFC1CF"/><stop offset="1" stop-color="#5F7182"/></linearGradient>
    <linearGradient id="accent" x1="0" y1="0" x2="1" y2="0"><stop offset="0" stop-color="#00A6B2"/><stop offset="1" stop-color="#2BD3DD"/></linearGradient>
  </defs>

  <rect x="64" y="58" width="292" height="292" rx="72" fill="url(#bg)"/>
  <g>
    <path d="M110 286 L174 138 Q179 128 187 128 H202 Q210 128 214 138 L272 286" fill="none" stroke="url(#platinum)" stroke-width="26" stroke-linecap="round" stroke-linejoin="round"/>
    <path d="M145 240 H226" fill="none" stroke="url(#accent)" stroke-width="20" stroke-linecap="round"/>
    <path d="M222 151 H305 L296 175 H231 Z" fill="url(#steel)" opacity="0.98"/>
    <path d="M233 203 H289 L281 225 H240 Z" fill="url(#steel)" opacity="0.92"/>
  </g>
  <text x="430" y="204" font-family="Inter Display, Inter, Arial, sans-serif" font-size="104" letter-spacing="14" font-weight="800" fill="#E8EEF3">AFSECMO</text>
  <rect x="434" y="236" width="278" height="5" rx="2.5" fill="#00A6B2"/>
  <text x="430" y="294" font-family="Inter, Arial, sans-serif" font-size="30" letter-spacing="7" font-weight="600" fill="#A9BFCE">INDUSTRIAL SERVICES · MINING · OIL &amp; GAS</text>
</svg>